<?xml version="1.0" encoding="UTF-8" standalone="no"?><!-- Generator: Gravit.io --><svg xmlns="http://www.w3.org/2000/svg" xmlns:xlink="http://www.w3.org/1999/xlink" style="isolation:isolate" viewBox="0 0 256 256" width="256pt" height="256pt"><defs><clipPath id="_clipPath_2EP6wIzyogYcEP1XG1Fm6Qy5AyoEa1So"><rect width="256" height="256"/></clipPath></defs><g clip-path="url(#_clipPath_2EP6wIzyogYcEP1XG1Fm6Qy5AyoEa1So)"><linearGradient id="_lgradient_2" x1="0.5" y1="0" x2="0.5000000000000001" y2="1" gradientTransform="matrix(256,0,0,256,0,0)" gradientUnits="userSpaceOnUse"><stop offset="1.6666666666666667%" stop-opacity="1" style="stop-color:rgb(0,0,0)"/><stop offset="99.16666666666667%" stop-opacity="1" style="stop-color:rgb(30,64,255)"/></linearGradient><circle vector-effect="non-scaling-stroke" cx="128" cy="128" r="128" fill="url(#_lgradient_2)"/><path d=" M 95.873 165.782 L 121.365 128 L 59.54 36.37 C 56.551 31.943 61.289 26.157 66.215 28.211 C 69.876 29.737 72.977 37.007 73.925 38.428 C 93.537 67.816 108.613 90.148 127.764 118.516 L 127.764 118.516 L 187.34 30.22 C 188.605 28.355 192.933 27.582 195 29 C 197.067 30.418 197.434 33.796 196 36.37 C 189.932 45.212 134.427 128.36 134.427 128.36 C 134.422 128.392 159.42 165.336 159.924 166.081 L 159.924 166.081 L 227.45 66.98 C 230.046 63.166 235.623 64.208 237.22 68.304 C 237.782 69.746 237.555 71.628 236.71 72.91 C 233.83 77.277 230.969 81.657 228.038 85.99 C 214.919 105.385 201.74 124.738 188.562 144.092 C 181.294 154.767 174.579 164.176 166.7 176.077 C 171.504 183.177 189.171 208.306 197.13 220.343 C 199.834 226.355 190.784 230.855 187.34 225.78 L 187.34 225.78 L 160.203 185.561 C 147.197 204.551 144.775 208.564 134 224 C 132.367 226.897 130.934 227.972 128.04 228.101 C 124.346 228.091 123.271 225.726 122 224 C 120.738 222.286 95.743 185.932 95.743 185.932 C 95.743 185.932 71.484 221.691 71.484 221.691 C 71.484 221.691 67.279 227.228 67.279 227.228 C 62.353 230.395 56.135 224.671 59.54 219.63 L 59.54 219.63 L 88.947 176.046 C 67.833 145.196 25.636 82.58 21.256 75.946 C 21.256 75.946 18.792 71.866 18.792 71.866 C 17.008 65.918 24.972 61.751 28.55 66.98 L 28.55 66.98 L 95.873 165.782 Z  M 102.641 175.716 C 113.541 159.515 116.991 154.366 128.04 137.893 L 128.04 137.893 L 153.46 175.567 L 128 212.932 L 102.641 175.716 Z " fill-rule="evenodd" fill="rgb(255,255,255)"/></g></svg>